<svg width="25" height="24" viewBox="0 0 25 24" fill="none" xmlns="http://www.w3.org/2000/svg">
<path d="M12.5 22C11.25 22 10.0793 21.7627 8.988 21.288C7.89667 20.8133 6.94667 20.1717 6.138 19.363C5.32933 18.5543 4.68767 17.6043 4.213 16.513C3.73833 15.4217 3.50067 14.2507 3.5 13H5.5C5.5 14.95 6.17933 16.6043 7.538 17.963C8.89667 19.3217 10.5507 20.0007 12.5 20C14.45 20 16.1043 19.321 17.463 17.963C18.8217 16.605 19.5007 14.9507 19.5 13C19.5 11.05 18.821 9.396 17.463 8.038C16.105 6.68 14.4507 6.00067 12.5 6H12.35L13.9 7.55L12.5 9L8.5 5L12.5 1L13.9 2.45L12.35 4H12.5C13.75 4 14.921 4.23767 16.013 4.713C17.105 5.18833 18.055 5.83 18.863 6.638C19.671 7.446 20.3127 8.396 20.788 9.488C21.2633 10.58 21.5007 11.7507 21.5 13C21.5 14.25 21.2627 15.421 20.788 16.513C20.3133 17.605 19.6717 18.555 18.863 19.363C18.0543 20.171 17.1043 20.8127 16.013 21.288C14.9217 21.7633 13.7507 22.0007 12.5 22Z" fill="black"/>
</svg>
